<svg width="204" height="205" xmlns="http://www.w3.org/2000/svg" xmlns:xlink="http://www.w3.org/1999/xlink" xml:space="preserve" overflow="hidden"><defs><clipPath id="clip0"><path d="M304.237 381.369 203.5 279.707 305.162 178.97 405.899 280.632Z" fill-rule="nonzero" clip-rule="nonzero"/></clipPath><clipPath id="clip1"><path d="M304.237 381.369 203.5 279.707 305.162 178.97 405.899 280.632Z" fill-rule="evenodd" clip-rule="evenodd"/></clipPath><clipPath id="clip2"><path d="M304.237 381.369 203.5 279.707 305.162 178.97 405.899 280.632Z" fill-rule="evenodd" clip-rule="evenodd"/></clipPath></defs><g transform="translate(-202 -177)"><g><g clip-path="url(#clip0)"><g clip-path="url(#clip1)"><g clip-path="url(#clip2)"><path d="M217.66 268.627C216.15 272.147 215.369 275.934 215.36 279.761L215.356 279.765 215.356 279.788 215.36 279.785C215.334 283.603 216.084 287.386 217.554 290.911 220.444 297.775 225.879 303.26 232.716 306.212 239.806 309.237 247.819 309.286 254.941 306.337L316.545 282.607 320.736 282.627 320.74 282.631C321.727 285.485 324.41 287.407 327.434 287.433L395.744 287.745 395.748 287.741C399.701 287.759 402.918 284.572 402.936 280.619 402.954 276.665 399.767 273.449 395.813 273.431L327.5 273.115C324.475 273.113 321.778 275.014 320.761 277.855L316.563 277.836 255.242 253.568C248.262 250.591 240.38 250.5 233.334 253.325 226.287 256.15 220.649 261.652 217.66 268.628ZM222.591 284.937 222.587 284.941C222.26 284.612 221.954 284.263 221.671 283.898 221.262 283.366 220.921 282.783 220.659 282.169L293.447 282.506 253.608 290.8C247.225 292.19 240.623 292.16 234.253 290.711 231.56 290.106 228.967 289.141 226.534 287.837 225.087 287.06 223.755 286.089 222.582 284.938ZM220.68 277.402C220.952 276.786 221.294 276.211 221.708 275.683 223.064 274.064 224.73 272.744 226.608 271.788 229.053 270.506 231.655 269.565 234.354 268.985 237.531 268.284 240.778 267.939 244.04 267.965 247.305 267.973 250.561 268.343 253.747 269.081L293.473 277.734ZM253.163 301.914C247.717 304.186 241.62 304.356 236.051 302.389 230.486 300.427 225.843 296.472 223.025 291.285 223.419 291.532 223.805 291.786 224.231 292.018 227.043 293.529 230.046 294.653 233.158 295.355 240.223 296.965 247.548 297.002 254.619 295.465L287.898 288.533ZM234.796 257.874 234.8 257.87C240.764 255.391 247.485 255.43 253.426 257.979L287.974 271.653 254.801 264.425C251.278 263.61 247.675 263.198 244.058 263.194 240.44 263.165 236.837 263.548 233.304 264.335 230.181 265.004 227.168 266.101 224.343 267.587 223.919 267.818 223.526 268.065 223.13 268.308 225.736 263.616 229.845 259.939 234.8 257.87Z" fill="#FF68B5" fill-rule="nonzero" fill-opacity="1"/></g></g></g></g></g></svg>