<svg width="204" height="205" xmlns="http://www.w3.org/2000/svg" xmlns:xlink="http://www.w3.org/1999/xlink" xml:space="preserve" overflow="hidden"><defs><clipPath id="clip0"><path d="M526.163 178.97 626.9 280.632 525.237 381.369 424.5 279.707Z" fill-rule="nonzero" clip-rule="nonzero"/></clipPath><clipPath id="clip1"><path d="M526.163 178.97 626.9 280.632 525.237 381.369 424.5 279.707Z" fill-rule="evenodd" clip-rule="evenodd"/></clipPath><clipPath id="clip2"><path d="M526.163 178.97 626.9 280.632 525.237 381.369 424.5 279.707Z" fill-rule="evenodd" clip-rule="evenodd"/></clipPath></defs><g transform="translate(-424 -177)"><g><g clip-path="url(#clip0)"><g clip-path="url(#clip1)"><g clip-path="url(#clip2)"><path d="M612.739 291.712C614.25 288.192 615.03 284.405 615.04 280.578L615.044 280.574 615.044 280.551 615.04 280.555C615.065 276.736 614.316 272.953 612.845 269.428 609.955 262.564 604.521 257.079 597.683 254.127 590.593 251.102 582.58 251.053 575.459 254.002L513.854 277.732 509.664 277.712 509.66 277.708C508.673 274.854 505.99 272.932 502.966 272.906L434.656 272.594 434.652 272.598C430.699 272.58 427.482 275.767 427.464 279.72 427.446 283.674 430.633 286.89 434.586 286.908L502.9 287.224C505.924 287.226 508.621 285.325 509.638 282.484L513.836 282.503 575.158 306.771C582.138 309.748 590.02 309.839 597.066 307.014 604.113 304.189 609.751 298.687 612.74 291.711ZM607.809 275.402 607.813 275.398C608.139 275.727 608.446 276.076 608.729 276.441 609.138 276.973 609.479 277.556 609.741 278.17L536.952 277.833 576.792 269.539C583.175 268.149 589.776 268.179 596.146 269.628 598.84 270.233 601.432 271.198 603.866 272.502 605.313 273.279 606.645 274.25 607.817 275.401ZM609.719 282.937C609.448 283.553 609.105 284.128 608.692 284.656 607.336 286.275 605.67 287.595 603.792 288.551 601.346 289.833 598.745 290.774 596.046 291.354 592.869 292.055 589.621 292.4 586.36 292.374 583.095 292.366 579.839 291.996 576.652 291.258L536.927 282.605ZM577.237 258.425C582.683 256.153 588.78 255.983 594.349 257.95 599.914 259.912 604.556 263.867 607.375 269.054 606.981 268.807 606.595 268.553 606.169 268.321 603.357 266.81 600.354 265.686 597.242 264.984 590.177 263.374 582.852 263.337 575.78 264.874L542.502 271.806ZM595.604 302.465 595.6 302.469C589.635 304.948 582.915 304.909 576.973 302.36L542.426 288.686 575.599 295.914C579.122 296.729 582.725 297.141 586.342 297.145 589.959 297.174 593.562 296.791 597.096 296.004 600.218 295.335 603.232 294.238 606.057 292.752 606.481 292.521 606.874 292.274 607.27 292.031 604.663 296.723 600.555 300.4 595.6 302.469Z" fill="#FF68B5" fill-rule="nonzero" fill-opacity="1"/></g></g></g></g></g></svg>